<svg width="37" height="24" viewBox="0 0 37 24" fill="none" xmlns="http://www.w3.org/2000/svg">
    <path d="M34.7948 24.0005H2.50518C1.47798 23.9909 0.647583 23.1557 0.647583 22.1237V1.87729C0.647583 0.840488 1.48758 0.000488281 2.52438 0.000488281H34.7756C35.8124 0.000488281 36.6524 0.840488 36.6524 1.87729V22.1285C36.6476 23.1557 35.822 23.9909 34.7948 24.0005Z" fill="#EF809F"/>
    <path d="M11.453 21.4519C12.269 21.4519 12.893 20.9047 12.893 20.1031C12.893 19.3591 12.365 19.0375 11.717 18.8455C11.3042 18.7255 11.045 18.6343 11.045 18.3415C11.045 18.0967 11.2226 17.9047 11.5058 17.9047C11.7458 17.9047 11.9234 18.0439 12.053 18.2551L12.7298 17.8279C12.5186 17.3623 12.0434 17.1223 11.5298 17.1223C10.7138 17.1223 10.1954 17.7079 10.1954 18.3895C10.1954 18.9319 10.5218 19.3495 11.3234 19.5847C11.7602 19.7095 12.0386 19.7959 12.0386 20.1415C12.0386 20.4679 11.8034 20.6695 11.4626 20.6695C11.0978 20.6695 10.8194 20.4343 10.6514 20.2183L10.0898 20.7799C10.3922 21.1927 10.8818 21.4519 11.453 21.4519ZM14.7506 21.4519C13.8866 21.4519 13.1858 20.7607 13.1858 19.9207C13.1858 19.0807 13.8866 18.3895 14.7506 18.3895C15.6146 18.3895 16.3154 19.0807 16.3154 19.9207C16.3154 20.7607 15.6146 21.4519 14.7506 21.4519ZM14.7506 20.6839C15.1682 20.6839 15.4994 20.3527 15.4994 19.9207C15.4994 19.4887 15.1682 19.1575 14.7506 19.1575C14.3282 19.1575 14.0018 19.4887 14.0018 19.9207C14.0018 20.3575 14.333 20.6839 14.7506 20.6839ZM18.3362 17.9431V17.1751H18.2162C17.2226 17.1751 16.733 17.8375 16.733 18.6151V21.3751H17.549V20.1655C17.549 19.7623 17.861 19.4743 18.3122 19.4647V18.6871C17.9906 18.6871 17.7314 18.7831 17.549 18.9751V18.6631C17.549 18.1543 17.8802 17.9239 18.3362 17.9431ZM20.117 21.4519C19.253 21.4519 18.5522 20.7607 18.5522 19.9207C18.5522 19.0807 19.253 18.3895 20.117 18.3895C20.981 18.3895 21.6818 19.0807 21.6818 19.9207C21.6818 20.7607 20.981 21.4519 20.117 21.4519ZM20.117 20.6839C20.5394 20.6839 20.8658 20.3527 20.8658 19.9207C20.8658 19.4887 20.5346 19.1575 20.117 19.1575C19.6994 19.1575 19.3682 19.4887 19.3682 19.9207C19.3682 20.3575 19.6994 20.6839 20.117 20.6839ZM22.9154 18.8023V18.4711H22.1234V21.3751H22.9394V20.0503C22.9394 19.5703 23.2226 19.3015 23.7122 19.3015V18.4279C23.3426 18.4135 23.0786 18.5383 22.9154 18.8023ZM24.9986 19.8919V19.1815C25.181 19.3735 25.4354 19.4695 25.7618 19.4695V18.6967C25.3202 18.6871 24.9986 18.3895 24.9986 17.9959V17.5399H24.1826V19.9399C24.1826 20.7175 24.6674 21.3799 25.6658 21.3799H25.7858V20.6119C25.3298 20.6263 24.9986 20.4007 24.9986 19.8919ZM26.7602 21.4231C27.0578 21.4231 27.3074 21.1783 27.3074 20.8759C27.3074 20.5783 27.0626 20.3287 26.7602 20.3287C26.4578 20.3287 26.213 20.5735 26.213 20.8759C26.213 21.1783 26.4578 21.4231 26.7602 21.4231Z" fill="white"/>
    <path d="M17.3558 11.1553C17.6102 11.4049 17.615 11.8129 17.3654 12.0673L17.3174 12.1201C17.0678 12.3745 16.6598 12.3793 16.4054 12.1297L14.9654 10.7041C14.567 10.3057 14.5142 9.81609 14.7638 9.55689L14.8118 9.50409C15.0182 9.28809 15.359 9.26889 15.5942 9.45129C15.7046 9.53769 15.8678 9.51849 15.959 9.40809C16.0454 9.29769 16.0262 9.13449 15.9158 9.04329C15.4694 8.69289 14.831 8.73609 14.4374 9.13929L14.3894 9.19209C13.9238 9.67209 14.015 10.4833 14.5958 11.0641L16.0406 12.5041C16.5062 12.9505 17.2406 12.9409 17.6918 12.4801L17.7446 12.4273C18.1862 11.9665 18.1766 11.2369 17.7206 10.7857C17.6198 10.6849 17.4566 10.6849 17.3558 10.7905C17.2502 10.8913 17.2502 11.0545 17.3558 11.1553ZM16.4918 3.42249L17.0822 8.27049C17.0966 8.40969 17.2262 8.51529 17.3702 8.49609C17.5094 8.48169 17.615 8.35209 17.5958 8.20809L17.0054 3.34089L17.0006 3.31209C16.8998 2.90889 17.1494 2.45769 17.4854 2.38569C17.6726 2.34729 17.8694 2.38089 18.0278 2.48649C18.1862 2.59209 18.2966 2.75529 18.335 2.94249L19.3622 7.32969C19.3958 7.46889 19.535 7.55529 19.6742 7.52169C19.8134 7.48809 19.8998 7.34889 19.8662 7.20969L18.8438 2.83689C18.7814 2.52009 18.5894 2.23689 18.3158 2.05449C18.0422 1.87209 17.7014 1.80969 17.3798 1.87689C16.7462 2.01129 16.3334 2.75049 16.4918 3.42249Z" fill="white"/>
    <path d="M21.9073 9.11591L23.0737 3.30791C23.2081 2.68391 22.8385 2.05511 22.2193 1.87271C21.5281 1.69991 20.8321 2.10311 20.6545 2.78471L19.3633 7.20551C19.3249 7.34471 19.4017 7.48871 19.5409 7.52711C19.6801 7.56551 19.8241 7.48871 19.8625 7.34951L21.1537 2.92391C21.2641 2.51591 21.6769 2.27111 22.0801 2.37191C22.4257 2.47751 22.6417 2.83751 22.5649 3.20231L21.3985 9.01511C21.3697 9.15431 21.4609 9.29351 21.6001 9.32231C21.7441 9.34631 21.8833 9.25511 21.9073 9.11591ZM18.9745 14.7127C17.1265 14.7127 15.5857 13.3591 15.5857 11.4343C15.5857 11.2903 15.4705 11.1751 15.3265 11.1751C15.1825 11.1751 15.0673 11.2903 15.0673 11.4343C15.0673 13.6615 16.8577 15.2311 18.9745 15.2311C19.1185 15.2311 19.2337 15.1159 19.2337 14.9719C19.2337 14.8279 19.1185 14.7127 18.9745 14.7127ZM18.0625 10.1863C18.0241 10.3303 17.9329 10.4599 17.8081 10.5415L17.7505 10.5751C17.4529 10.7767 17.0497 10.6999 16.8481 10.4023L15.7153 8.71751C15.4081 8.24711 15.4465 7.75751 15.7441 7.55111L15.7969 7.51271C16.1809 7.29191 16.5025 7.45991 16.8337 7.94471L17.7793 9.35591C17.8609 9.47591 18.0193 9.50471 18.1393 9.42791C18.2593 9.35111 18.2881 9.18791 18.2113 9.06791L17.2657 7.65671C16.7953 6.97511 16.2193 6.67271 15.5233 7.07591L15.4513 7.12391C14.8945 7.50311 14.8273 8.31911 15.2833 9.00551L16.4161 10.6951C16.7809 11.2279 17.5009 11.3671 18.0337 11.0071L18.0913 10.9687C18.3169 10.8151 18.4801 10.5847 18.5569 10.3207C18.5953 10.1815 18.5137 10.0423 18.3745 10.0039C18.2401 9.96551 18.1009 10.0471 18.0625 10.1863Z" fill="white"/>
    <path d="M19.7759 11.0403C19.2383 11.3427 18.9023 11.9043 18.8639 12.7635C18.8543 12.9075 18.9647 13.0275 19.1087 13.0371C19.2527 13.0419 19.3727 12.9363 19.3823 12.7923C19.4207 12.0147 19.7231 11.5971 20.2079 11.4147C20.4671 11.3187 20.7503 11.2995 20.9999 11.3235L21.0623 11.3331C21.3935 11.3955 21.4991 10.9011 21.1679 10.8243L19.1759 10.3779C18.2447 10.1235 18.1007 9.77792 18.2735 9.20192C18.3503 8.95232 18.4991 8.82272 18.7343 8.76992C18.8879 8.73632 19.0559 8.74112 19.2191 8.76992C19.2671 8.77952 19.3007 8.78432 19.3151 8.78912L22.3391 9.49472L22.3967 9.51392C22.4447 9.53312 22.4975 9.57152 22.5503 9.62432C22.7519 9.84032 22.8671 10.2483 22.8095 10.9203C22.6127 13.2723 21.5183 14.7315 18.9167 14.7075C18.7727 14.7075 18.6575 14.8227 18.6575 14.9619C18.6575 15.1059 18.7727 15.2211 18.9119 15.2211C21.8303 15.2451 23.1071 13.5507 23.3231 10.9587C23.3903 10.1523 23.2415 9.60032 22.9295 9.26912C22.7567 9.08672 22.5743 9.00032 22.4351 8.98112L19.4447 8.28512C19.4255 8.28032 19.3775 8.26592 19.3103 8.25632C19.0847 8.21792 18.8495 8.21312 18.6191 8.26112C18.2159 8.35232 17.9087 8.60672 17.7791 9.04832C17.5295 9.87872 17.7935 10.5315 19.0511 10.8723L19.7759 11.0403Z" fill="white"/>
</svg>
